<svg xmlns="http://www.w3.org/2000/svg" viewBox="0 0 223 220">
  <g id="Grupo_4350" data-name="Grupo 4350" transform="translate(208.5 18.075)">
    <circle id="Elipse_389" data-name="Elipse 389" cx="108" cy="108" r="108" transform="translate(-201.5 -14.075)" fill="#522efa"/>
    <circle id="Elipse_390" data-name="Elipse 390" cx="108" cy="108" r="108" transform="translate(-208.5 -18.075)" fill="#7fc3ff"/>
    <path id="Caminho_3243" data-name="Caminho 3243" d="M-174.715,40a.418.418,0,0,1,.157.291l.289,2.684a.41.41,0,0,1-.092.317.412.412,0,0,1-.291.158l-1.968.212a.159.159,0,0,0-.159.2l1.533,14.242a.414.414,0,0,1-.093.317.415.415,0,0,1-.29.158l-4.151.447a.414.414,0,0,1-.318-.093.411.411,0,0,1-.158-.29L-181.789,44.4a.159.159,0,0,0-.2-.16l-1.074.115a.412.412,0,0,1-.317-.092.413.413,0,0,1-.158-.29l-.289-2.685a.413.413,0,0,1,.092-.317.417.417,0,0,1,.291-.158l1.074-.115a.159.159,0,0,0,.159-.2l-.1-.967q-.347-3.22,1.149-4.63t5.045-1.72l.144-.015a.417.417,0,0,1,.317.092.419.419,0,0,1,.158.291l.272,2.866a.418.418,0,0,1-.092.318.417.417,0,0,1-.291.158l-.071.008q-1.822.232-1.587,2.415l.07.645a.158.158,0,0,0,.2.159l1.968-.212A.423.423,0,0,1-174.715,40Z" fill="#522efa"/>
    <path id="Caminho_3244" data-name="Caminho 3244" d="M-160.752,39.749a5.491,5.491,0,0,1,2.362,4.126l1.321,12.274a.416.416,0,0,1-.092.318.424.424,0,0,1-.291.157l-4.186.451a.417.417,0,0,1-.318-.092.414.414,0,0,1-.158-.291l-.085-.788a.146.146,0,0,0-.087-.135c-.05-.019-.1.011-.135.087a4.559,4.559,0,0,1-3.48,1.967,5.828,5.828,0,0,1-3.721-.758q-1.644-.979-1.99-4.2-.358-3.328,1.35-4.778a9.484,9.484,0,0,1,5.179-1.824l1.646-.177a.159.159,0,0,0,.159-.2l-.1-.9a2.429,2.429,0,0,0-.69-1.536,1.642,1.642,0,0,0-1.374-.486,1.464,1.464,0,0,0-.979.486,1.749,1.749,0,0,0-.4,1.112.42.42,0,0,1-.42.479l-4.3.426a.381.381,0,0,1-.475-.382,5.739,5.739,0,0,1,1.591-4.39,7.16,7.16,0,0,1,4.556-2.064A7.31,7.31,0,0,1-160.752,39.749Zm-2.427,13.274a1.843,1.843,0,0,0,.5-1.555l-.181-1.682a.158.158,0,0,0-.2-.159l-1.466.158a2.193,2.193,0,0,0-1.5.721,2,2,0,0,0-.427,1.584,1.9,1.9,0,0,0,.594,1.312,1.6,1.6,0,0,0,1.249.336A2.258,2.258,0,0,0-163.179,53.023Z" fill="#522efa"/>
    <path id="Caminho_3245" data-name="Caminho 3245" d="M-153.376,54.973a4.748,4.748,0,0,1-2.225-3.688l-.027-.25a.418.418,0,0,1,.093-.319.423.423,0,0,1,.29-.158l3.937-.423a.416.416,0,0,1,.317.092.42.42,0,0,1,.158.292l.012.106a1.6,1.6,0,0,0,.67,1.178,1.914,1.914,0,0,0,1.375.34,1.532,1.532,0,0,0,1.084-.534,1.436,1.436,0,0,0,.3-1.1,1.412,1.412,0,0,0-.813-1.162,7.3,7.3,0,0,0-1.6-.588q-.873-.215-1.207-.286a9.457,9.457,0,0,1-3.523-1.63,4.836,4.836,0,0,1-1.737-3.523,5.213,5.213,0,0,1,1.275-4.3,6.743,6.743,0,0,1,4.419-2,6.787,6.787,0,0,1,4.875,1.068,5.5,5.5,0,0,1,2.193,4.072.415.415,0,0,1-.092.317.414.414,0,0,1-.291.158l-3.829.412a.41.41,0,0,1-.318-.092.415.415,0,0,1-.158-.29l-.03-.286a1.59,1.59,0,0,0-.573-1.117,1.587,1.587,0,0,0-1.211-.32,1.505,1.505,0,0,0-1.129.609,1.659,1.659,0,0,0-.308,1.174,1.527,1.527,0,0,0,.878,1.263,12.07,12.07,0,0,0,2.35.815,21.066,21.066,0,0,1,2.756.88,5.62,5.62,0,0,1,2.059,1.479,4.588,4.588,0,0,1,1.082,2.653,4.789,4.789,0,0,1-1.385,4.113,7.519,7.519,0,0,1-4.657,1.968A7.583,7.583,0,0,1-153.376,54.973Z" fill="#522efa"/>
    <path id="Caminho_3246" data-name="Caminho 3246" d="M-127.494,45.562a.422.422,0,0,1-.291.159l-7.872.847a.157.157,0,0,0-.159.2l.142,1.324a2.278,2.278,0,0,0,.643,1.433,1.532,1.532,0,0,0,1.3.457,1.478,1.478,0,0,0,1.062-.566,2.275,2.275,0,0,0,.45-1.189.455.455,0,0,1,.427-.409l4.138-.228a.428.428,0,0,1,.318.093.374.374,0,0,1,.126.331,5.942,5.942,0,0,1-1.466,4.375,7.154,7.154,0,0,1-4.589,1.923,7.262,7.262,0,0,1-5.145-1.056,5.643,5.643,0,0,1-2.265-4.227l-.747-6.942a5.656,5.656,0,0,1,1.336-4.561,7.126,7.126,0,0,1,4.78-2.178,7.129,7.129,0,0,1,5.133,1.111,5.662,5.662,0,0,1,2.277,4.172l.5,4.617A.41.41,0,0,1-127.494,45.562Zm-8.522-5.181a2.206,2.206,0,0,0-.324,1.518l.15,1.4a.159.159,0,0,0,.2.16l3.077-.331a.159.159,0,0,0,.16-.2l-.15-1.4a2.215,2.215,0,0,0-.641-1.415,1.552,1.552,0,0,0-1.3-.44A1.552,1.552,0,0,0-136.016,40.381Z" fill="#522efa"/>
    <path id="Caminho_3247" data-name="Caminho 3247" d="M-106.711,33.841a6.92,6.92,0,0,1,1.75,4.319l.747,6.941a7.027,7.027,0,0,1-.776,4.555,4.471,4.471,0,0,1-3.551,1.993,4.136,4.136,0,0,1-3.367-1.014.15.15,0,0,0-.149-.037c-.046.018-.065.06-.057.132l.061.574a.414.414,0,0,1-.093.317.419.419,0,0,1-.29.158l-4.187.45a.415.415,0,0,1-.317-.092.412.412,0,0,1-.158-.29l-2.6-24.191a.411.411,0,0,1,.092-.317.41.41,0,0,1,.291-.158l4.186-.451a.415.415,0,0,1,.318.093.411.411,0,0,1,.158.29l.782,7.265a.062.062,0,0,0,.079.062.39.39,0,0,0,.268-.209,4.19,4.19,0,0,1,2.945-1.547A4.53,4.53,0,0,1-106.711,33.841Zm-3.88,3.8a1.5,1.5,0,0,0-1.279-.442,1.591,1.591,0,0,0-1.063.549,1.9,1.9,0,0,0-.449,1.207l.771,7.156a1.887,1.887,0,0,0,.695,1.084,1.584,1.584,0,0,0,1.156.309,1.5,1.5,0,0,0,1.155-.7,2.264,2.264,0,0,0,.308-1.517l-.671-6.227A2.267,2.267,0,0,0-110.591,37.644Z" fill="#522efa"/>
    <path id="Caminho_3248" data-name="Caminho 3248" d="M-88.812,41.4a.423.423,0,0,1-.291.158l-7.873.847a.159.159,0,0,0-.159.2l.142,1.324a2.287,2.287,0,0,0,.644,1.433,1.532,1.532,0,0,0,1.3.457,1.482,1.482,0,0,0,1.061-.565,2.274,2.274,0,0,0,.451-1.19.452.452,0,0,1,.427-.408l4.138-.228a.423.423,0,0,1,.318.092.374.374,0,0,1,.126.331A5.946,5.946,0,0,1-90,48.223a7.154,7.154,0,0,1-4.589,1.923A7.262,7.262,0,0,1-99.73,49.09,5.645,5.645,0,0,1-102,44.863l-.747-6.942a5.653,5.653,0,0,1,1.337-4.56,7.123,7.123,0,0,1,4.78-2.179,7.12,7.12,0,0,1,5.132,1.111,5.663,5.663,0,0,1,2.278,4.172l.5,4.616A.419.419,0,0,1-88.812,41.4Zm-8.521-5.182a2.208,2.208,0,0,0-.326,1.519l.15,1.4a.158.158,0,0,0,.2.16l3.078-.331a.159.159,0,0,0,.16-.2l-.15-1.4a2.21,2.21,0,0,0-.641-1.415,1.555,1.555,0,0,0-1.3-.44A1.545,1.545,0,0,0-97.333,36.217Z" fill="#522efa"/>
    <path id="Caminho_3249" data-name="Caminho 3249" d="M-79,33.03a.415.415,0,0,1-.291.158l-2,.215a.159.159,0,0,0-.16.2l.917,8.517a2.019,2.019,0,0,0,.547,1.388,1.5,1.5,0,0,0,1.219.232l.251-.027a.418.418,0,0,1,.318.092.419.419,0,0,1,.158.29l.377,3.508a.417.417,0,0,1-.092.317.421.421,0,0,1-.291.158l-1.431.154a7.231,7.231,0,0,1-4.031-.453q-1.419-.733-1.684-3.2l-1.125-10.449a.159.159,0,0,0-.2-.16l-1.181.127A.414.414,0,0,1-88.016,34a.419.419,0,0,1-.158-.291l-.289-2.684a.414.414,0,0,1,.093-.317.419.419,0,0,1,.291-.158l1.181-.127a.159.159,0,0,0,.159-.2l-.427-3.973a.421.421,0,0,1,.092-.318.423.423,0,0,1,.291-.158l4.008-.431a.421.421,0,0,1,.317.092.424.424,0,0,1,.159.291l.427,3.973a.159.159,0,0,0,.2.159l2-.215a.416.416,0,0,1,.317.092.416.416,0,0,1,.159.29l.289,2.685A.421.421,0,0,1-79,33.03Z" fill="#522efa"/>
    <path id="Caminho_3250" data-name="Caminho 3250" d="M-65.461,29.491A5.491,5.491,0,0,1-63.1,33.617l1.322,12.275a.418.418,0,0,1-.093.317.419.419,0,0,1-.291.158l-4.186.45a.417.417,0,0,1-.318-.092.415.415,0,0,1-.158-.29l-.085-.788a.144.144,0,0,0-.086-.135c-.051-.019-.1.01-.136.087a4.565,4.565,0,0,1-3.48,1.967,5.839,5.839,0,0,1-3.72-.758q-1.644-.981-1.991-4.2-.358-3.328,1.35-4.779A9.487,9.487,0,0,1-69.792,36l1.646-.177a.159.159,0,0,0,.16-.2l-.1-.895a2.427,2.427,0,0,0-.69-1.537,1.641,1.641,0,0,0-1.373-.486,1.464,1.464,0,0,0-.98.486,1.751,1.751,0,0,0-.4,1.112.421.421,0,0,1-.42.48l-4.3.425a.381.381,0,0,1-.475-.382,5.731,5.731,0,0,1,1.591-4.39,7.157,7.157,0,0,1,4.555-2.064A7.31,7.31,0,0,1-65.461,29.491Zm-2.426,13.275a1.849,1.849,0,0,0,.5-1.556l-.181-1.681a.159.159,0,0,0-.2-.16l-1.467.158a2.2,2.2,0,0,0-1.5.721,2,2,0,0,0-.426,1.584,1.891,1.891,0,0,0,.593,1.312,1.6,1.6,0,0,0,1.249.336A2.264,2.264,0,0,0-67.887,42.766Z" fill="#522efa"/>
    <path id="Caminho_3251" data-name="Caminho 3251" d="M-141.563,160.754l-1.272-13.576q-.136-1.453.954-1.557,6.546-.613,9.2-2.329t2.122-6.068l-.189-.715L-151.72,77.092l-.046-.485q-.1-1.091,1.231-1.215l18.545-1.737a1.312,1.312,0,0,1,1.554,1.015,1.285,1.285,0,0,1,.025.185l6.864,31.515c.023.242.154.333.392.269a.388.388,0,0,0,.326-.444l0-.015.662-32.1a1.31,1.31,0,0,1,1.141-1.459,1.308,1.308,0,0,1,.188-.01l18.568-1.5q1.7-.159,1.481,1.451l-9.811,63.645q-1.694,9.328-4.226,14.273a17.553,17.553,0,0,1-8.262,7.743q-5.73,2.8-16.88,3.843l-.727.068Q-141.428,162.208-141.563,160.754Z" fill="#522efa"/>
    <path id="Caminho_3252" data-name="Caminho 3252" d="M-87.272,128.157q-6.948-4.971-7.866-14.792L-97.261,90.7q-.885-9.453,5.06-15.819t17.46-7.444q11.517-1.077,18.533,4.012t7.915,14.665l2.123,22.666q.919,9.817-4.982,16t-17.538,7.267Q-80.324,133.132-87.272,128.157Zm19.974-15.2a5.9,5.9,0,0,0,.849-3.992l-1.817-19.394a5.958,5.958,0,0,0-1.57-3.7,4.053,4.053,0,0,0-5.731-.1,4.114,4.114,0,0,0-.569.687,5.943,5.943,0,0,0-.854,3.931l1.817,19.394a5.885,5.885,0,0,0,1.575,3.765,4.159,4.159,0,0,0,5.881-.085,4.138,4.138,0,0,0,.419-.506Z" fill="#522efa"/>
    <path id="Caminho_3253" data-name="Caminho 3253" d="M-20.263,92.543l-13.769,1.685A1.8,1.8,0,0,1-36,92.762c-.693-4.047-2.486-14.839-3.813-25.687l-2.69-21.986A1.787,1.787,0,0,1-40.955,43.1l15.085-1.846a1.788,1.788,0,0,1,1.985,1.553l2.69,21.986C-19.867,75.646-19,86.552-18.7,90.646A1.8,1.8,0,0,1-20.263,92.543Z" fill="#522efa"/>
    <path id="Caminho_3254" data-name="Caminho 3254" d="M-23.691,105.356l.9.971a11.408,11.408,0,0,0,5.33,2.957l1.3.248a2.291,2.291,0,0,1,2.063,2.5,2.288,2.288,0,0,1-.4,1.084l-.646,1.154a11.432,11.432,0,0,0-1.166,5.983l.166,1.312a2.291,2.291,0,0,1-1.737,2.735,2.292,2.292,0,0,1-1.154-.041l-1.3-.258a11.422,11.422,0,0,0-6.05.74l-1.2.563a2.291,2.291,0,0,1-3.138-.808,2.3,2.3,0,0,1-.317-1.109l-.155-1.313a11.423,11.423,0,0,0-2.574-5.525l-.9-.964a2.291,2.291,0,0,1-.2-3.234,2.3,2.3,0,0,1,.956-.644l1.2-.554A11.411,11.411,0,0,0-28.254,107l.637-1.159a2.291,2.291,0,0,1,3.011-1.2A2.291,2.291,0,0,1-23.691,105.356Z" fill="#522efa"/>
  </g>
</svg>
