<svg xmlns="http://www.w3.org/2000/svg" xmlns:xlink="http://www.w3.org/1999/xlink" fill="none" viewBox="0 0 147 94"><clipPath id="a"><path d="m0 0h147v94h-147z"/></clipPath><g clip-path="url(#a)"><path d="m71 91.6667c23.0119 0 41.667-18.6549 41.667-41.6667 0-23.0119-18.6551-41.66669-41.667-41.66669-23.0118 0-41.6666 18.65479-41.6666 41.66669 0 23.0118 18.6548 41.6667 41.6666 41.6667z" fill="#6c4efa"/><path d="m103.25 35.5c9.803 0 17.75-7.9469 17.75-17.75 0-9.80305-7.947-17.75-17.75-17.75-9.8031 0-17.75 7.94695-17.75 17.75 0 9.8031 7.9469 17.75 17.75 17.75z" fill="#ff7d17"/><path d="m103.25 9.33331v16.16669" stroke="#fff" stroke-linecap="round" stroke-miterlimit="10" stroke-width="2.66"/><path d="m111.333 17.4166h-16.1664" stroke="#fff" stroke-linecap="round" stroke-miterlimit="10" stroke-width="2.66"/><path d="m89.75 68.5209c0-7.9375-4.0417-14.7084-9.7292-17.3959 1.792-.9096 3.2425-2.3733 4.1358-4.1734.8934-1.8001 1.1818-3.8405.8225-5.8178-.3593-1.9772-1.3471-3.7856-2.8167-5.1564-1.4695-1.3707-3.3423-2.2305-5.3397-2.4515-1.9974-.2211-4.0128.2085-5.7465 1.2248s-3.093 2.565-3.8759 4.4158-.9476 3.9049-.4694 5.8568 1.5736 3.6973 3.1233 4.9767c-4.0574.0582-8.01-1.2888-11.1875-3.8125-2.2938-2.0815-3.6904-4.9718-3.8959-8.0625 0-1.2376-.4916-2.4246-1.3668-3.2998s-2.0622-1.3668-3.2998-1.3668c-1.2377 0-2.4247.4916-3.2999 1.3668-.8751.8752-1.3668 2.0622-1.3668 3.2998.2244 5.6738 2.6714 11.0317 6.8125 14.9167 2.775 2.4758 6.1047 4.2479 9.7083 5.1667-1.6905 3.173-2.564 6.7172-2.5416 10.3125z" fill="#fff"/><path d="m131.67 34.59-5.67 2c-.292.1-.545.2888-.724.5398-.18.251-.276.5517-.276.8602s.096.6092.276.8602c.179.251.432.4398.724.5398l5.67 2c.211.0727.402.1925.56.3501.158.1577.277.3491.35.5599l2 5.67c.1.2918.289.545.54.7243s.552.2757.86.2757.609-.0964.86-.2757.44-.4325.54-.7243l2-5.67c.074-.21.194-.4008.352-.5583.157-.1575.348-.2777.558-.3517l5.68-2c.292-.1.545-.2888.724-.5398.18-.251.276-.5517.276-.8602s-.096-.6092-.276-.8602c-.179-.251-.432-.4398-.724-.5398l-5.68-2c-.209-.0759-.399-.1967-.556-.3539-.157-.1573-.278-.3471-.354-.5561l-2-5.68c-.1-.2918-.289-.545-.54-.7243s-.552-.2757-.86-.2757-.609.0964-.86.2757-.44.4325-.54.7243l-2 5.68c-.074.21-.194.4008-.352.5583-.157.1575-.348.2777-.558.3517z" fill="#fff"/></g></svg>
